<svg height="24" viewBox="0 0 24 24" width="24" xmlns="http://www.w3.org/2000/svg"><path d="m16.42 18.42c-.42-1.92-.92-3.69-1.42-5.25.5-.07 1-.11 1.58-.11h.02c.93 0 1.95.12 3.06.37-.38 2.07-1.58 3.84-3.24 4.99m-4.42 1.38c-1.74 0-3.34-.57-4.64-1.54.28-.45.87-1.32 1.82-2.22.96-.93 2.32-1.89 4.05-2.46.59 1.67 1.13 3.57 1.54 5.71-.86.33-1.77.51-2.77.51m-7.8-7.8c0-.04 0-.07 0-.11.22.01.51.01.85.01h.01c1.56-.01 4.3-.14 7.08-1.01.15.33.3.67.45 1.03-1.86.62-3.32 1.61-4.4 2.58-1.03.96-1.74 1.89-2.15 2.5-1.14-1.34-1.84-3.09-1.84-5m4.35-7c.55.65 1.63 2.06 2.79 4.25-2.34.71-4.73.87-6.16.87-.04 0-.08 0-.12 0h-.01c-.24 0-.45 0-.62-.01.57-2.24 2.07-4.11 4.12-5.11m3.45-.8c1.84 0 3.53.64 4.86 1.71-1.02 1.23-2.36 2.09-3.83 2.74-1.03-1.98-2.03-3.4-2.69-4.27.54-.11 1.09-.18 1.66-.18m6.13 2.98c.97 1.24 1.58 2.78 1.66 4.45-1.13-.24-2.19-.35-3.19-.35h-.01c-.8 0-1.55.07-2.26.19-.17-.42-.33-.82-.52-1.21 1.58-.69 3.09-1.68 4.32-3.08m-6.13-5.18a10 10 0 0 0 -10 10 10 10 0 0 0 10 10 10 10 0 0 0 10-10 10 10 0 0 0 -10-10z"/></svg>